<svg width="36" height="41" viewBox="0 0 36 41" fill="none" xmlns="http://www.w3.org/2000/svg">
<path d="M35 13.4C32.9 4.16 24.84 0 17.76 0H17.74C10.68 0 2.59996 4.14 0.499956 13.38C-1.84004 23.7 4.47996 32.44 10.2 37.94C12.2274 39.9024 14.9384 40.9997 17.76 41C20.48 41 23.2 39.98 25.3 37.94C31.02 32.44 37.34 23.72 35 13.4ZM17.76 23.42C16.9326 23.42 16.1134 23.257 15.3491 22.9404C14.5847 22.6238 13.8902 22.1598 13.3052 21.5748C12.7202 20.9898 12.2561 20.2953 11.9395 19.5309C11.6229 18.7666 11.46 17.9473 11.46 17.12C11.46 16.2927 11.6229 15.4734 11.9395 14.7091C12.2561 13.9447 12.7202 13.2502 13.3052 12.6652C13.8902 12.0802 14.5847 11.6162 15.3491 11.2996C16.1134 10.983 16.9326 10.82 17.76 10.82C19.4308 10.82 21.0332 11.4837 22.2147 12.6652C23.3962 13.8467 24.06 15.4491 24.06 17.12C24.06 18.7909 23.3962 20.3933 22.2147 21.5748C21.0332 22.7563 19.4308 23.42 17.76 23.42Z" fill="white"/>
</svg>
